# Aspose.3D Wavefront OBJ Exporter
# Copyright 2004-2023 Aspose Pty Ltd.
# File created: 05/22/2023 23:07:09

mtllib material.lib

#
# object Plane
#

v -0.02777255326509475 1.16184388101100922 0.13852016070607176
v 0.1271466389298439 1.16184388101100922 0.13852016070607176
v -0.02777255326509475 1.41678036749362944 0.13852017184969912
v 0.1271466389298439 1.41678036749362944 0.13852017184969912
# 4 vertices

vn 0 -4.371138473402425E-08 1
vn 0 -4.371138473402425E-08 1
vn 0 -4.371138473402425E-08 1
vn 0 -4.371138473402425E-08 1
# 4 vertex normals

vt 0.91192281246185296 -0.27051222324371336 0
vt 0.59682840108871456 -0.27051222324371336 0
vt 0.91192281246185296 -0.90421849489212032 0
vt 0.59682840108871456 -0.90421843528747552 0
# 4 texture coords

g Plane
usemtl TShirt
s 1
f 1/1/1 2/2/2 4/4/4
f 1/1/1 4/4/4 3/3/3
#2 polygons


#
# object Plane.001
#

v -0.00877125933766365 1.18065325915813448 0.16594929518189616
v 0.02938675507903099 1.18065325915813448 0.16594929518189616
v -0.00877125933766365 1.39797098934650424 0.1659493046811562
v 0.02938675507903099 1.39797098934650424 0.1659493046811562
# 4 vertices

vn 0 -4.371138828673793E-08 1
vn 0 -4.371138828673793E-08 1
vn 0 -4.371138828673793E-08 1
vn 0 -4.371138828673793E-08 1
# 4 vertex normals

vt 0.18877048790454864 -0.06681793928146362 0
vt 0.10661457479000092 -0.06681793928146362 0
vt 0.18877048790454864 -0.64686107635498048 0
vt 0.10661457479000092 -0.64686107635498048 0
# 4 texture coords

g Plane.001
usemtl TShirt
s 2
f 5/5/5 6/6/6 8/8/8
f 5/5/5 8/8/8 7/7/7
#2 polygons


#
# object Plane.002
#

v 0.02708520926535129 1.18065326660871504 0.1604540022170684
v 0.08159902505576611 1.18065326660871504 0.1604540022170684
v 0.02708520926535129 1.30812150985002516 0.16045400778888252
v 0.08159902505576611 1.30812150985002516 0.16045400778888252
# 4 vertices

vn 0 -4.371138828673793E-08 0.9999999403953552
vn 0 -4.371138828673793E-08 0.9999999403953552
vn 0 -4.371138828673793E-08 0.9999999403953552
vn 0 -4.371138828673793E-08 0.9999999403953552
# 4 vertex normals

vt 0.2178145945072174 -0.64179223775863648 0
vt 0.3191552460193634 -0.64179223775863648 0
vt 0.21781454980373384 -0.2954556941986084 0
vt 0.31915515661239624 -0.29545563459396364 0
# 4 texture coords

g Plane.002
usemtl TShirt
s 4
f 9/9/9 10/10/10 12/12/12
f 9/9/9 12/12/12 11/11/11
#2 polygons


#
# object Plane.003
#

v 0.05912795104086399 1.40419116988778112 0.16594930201645886
v 0.11930075846612454 1.40419116988778112 0.16594930201645886
v 0.05912795104086399 1.30879577621817588 0.16594929784659352
v 0.11930075846612454 1.30879577621817588 0.16594929784659352
# 4 vertices

vn 0 -4.3711395392165286E-08 1
vn 0 -4.3711395392165286E-08 1
vn 0 -4.3711395392165286E-08 1
vn 0 -4.3711395392165286E-08 1
# 4 vertex normals

vt 0.29314854741096496 -0.04935669898986816 0
vt 0.41370436549186704 -0.04935669898986816 0
vt 0.29314854741096496 -0.29504674673080444 0
vt 0.41370436549186704 -0.29504674673080444 0
# 4 texture coords

g Plane.003
usemtl TShirt
s 8
f 15/15/15 16/16/16 14/14/14
f 15/15/15 14/14/14 13/13/13
#2 polygons


#
# object Plane.004
#

v -0.1288362517952919 1.41678035072982312 0.1385201644018006
v -0.1288362443447113 1.35712062753736972 0.1385201644018006
v -0.03475943207740783 1.41678035818040368 0.13852016815397028
v -0.03475942462682724 1.35712063498795032 0.13852016815397028
# 4 vertices

vn -3.988410313127133E-08 -4.98091033072608E-15 1
vn -3.988410313127133E-08 -4.98091033072608E-15 1
vn -3.988410313127133E-08 -4.98091033072608E-15 1
vn -3.988410313127133E-08 -4.98091033072608E-15 1
# 4 vertex normals

vt 0.35675013065338136 -0.73885387182235712 0
vt 0.35675013065338136 -0.90574753284454352 0
vt 0.55337423086166384 -0.73885393142700192 0
vt 0.55337423086166384 -0.90574753284454352 0
# 4 texture coords

g Plane.004
usemtl TShirt
s 16
f 17/17/17 18/18/18 20/20/20
f 17/17/17 20/20/20 19/19/19
#2 polygons


#
# object Plane.005
#

v -0.07672779262065887 1.3057248406112194 0.15664122811105962
v -0.1446940042078495 1.3057248257100582 0.15664122811105962
v -0.07672777399420738 1.21164802089333536 0.15664123186322932
v -0.14469398558139802 1.21164800599217416 0.15664123186322932
# 4 vertices

vn -8.744337854716192E-15 3.988410668398501E-08 1
vn -8.744337854716192E-15 3.988410668398501E-08 1
vn -8.744337854716192E-15 3.988410668398501E-08 1
vn -8.744337854716192E-15 3.988410668398501E-08 1
# 4 vertex normals

vt 0.5673238039016724 -0.4832937717437744 0
vt 0.43050000071525576 -0.4832937121391296 0
vt 0.5673238039016724 -0.68401342630386352 0
vt 0.43050000071525576 -0.68401342630386352 0
# 4 texture coords

g Plane.005
usemtl TShirt
s 32
f 21/21/21 22/22/22 24/24/24
f 21/21/21 24/24/24 23/23/23
#2 polygons


#
# object Plane.006
#

v -0.05646705627441406 1.26103733107447624 0.1385201644018006
v -0.17868871241807938 1.26103731617331504 0.1385201644018006
v -0.05646701902151108 1.16696051135659218 0.13852016815397028
v -0.1786886751651764 1.16696049645543098 0.13852016815397028
# 4 vertices

vn -4.862636155685647E-15 3.988410313127133E-08 1
vn -4.862636155685647E-15 3.988410313127133E-08 1
vn -4.862636155685647E-15 3.988410313127133E-08 1
vn -4.862636155685647E-15 3.988410313127133E-08 1
# 4 vertex normals

vt 0.32453465461730956 -0.67238324880599976 0
vt 0.08020652085542679 -0.67238312959671024 0
vt 0.3245346248149872 -0.91414076089859008 0
vt 0.08020652830600739 -0.91414070129394528 0
# 4 texture coords

g Plane.006
usemtl TShirt
s 64
f 25/25/25 26/26/26 28/28/28
f 25/25/25 28/28/28 27/27/27
#2 polygons


#
# object Plane.007
#

v -0.09944047033786774 1.3113432005047798 0.16723605748463588
v -0.0779050886631012 1.3113432005047798 0.16723605748463588
v -0.09944047033786774 1.39686702936887744 0.16723606232356114
v -0.0779050886631012 1.39686702936887744 0.16723606232356114
# 4 vertices

vn 0 -5.6579846585691485E-08 1
vn 0 -5.6579846585691485E-08 1
vn 0 -5.6579846585691485E-08 1
vn 0 -5.6579846585691485E-08 1
# 4 vertex normals

vt 0.52651125192642208 -0.05738043785095215 0
vt 0.47913148999214176 -0.05738043785095215 0
vt 0.52651125192642208 -0.30035561323165892 0
vt 0.47913148999214176 -0.30035561323165892 0
# 4 texture coords

g Plane.007
usemtl TShirt
s 128
f 29/29/29 30/30/30 32/32/32
f 29/29/29 32/32/32 31/31/31
#2 polygons


#
# object Plane.008
#

v -0.1288362517952919 1.35712063126266004 0.1385201644018006
v -0.1288362443447113 1.29746090807020664 0.1385201644018006
v -0.03475943207740783 1.35712063871324064 0.13852016815397028
v -0.03475942462682724 1.29746091552078724 0.13852016815397028
# 4 vertices

vn -3.988410313127133E-08 -4.98091033072608E-15 1
vn -3.988410313127133E-08 -4.98091033072608E-15 1
vn -3.988410313127133E-08 -4.98091033072608E-15 1
vn -3.988410313127133E-08 -4.98091033072608E-15 1
# 4 vertex normals

vt 0.56297028064727784 -0.07098495960235596 0
vt 0.56297028064727784 -0.23787862062454224 0
vt 0.75959432125091552 -0.07098501920700073 0
vt 0.75959432125091552 -0.23787862062454224 0
# 4 texture coords

g Plane.008
usemtl TShirt
s 256
f 33/33/33 34/34/34 36/36/36
f 33/33/33 36/36/36 35/35/35
#2 polygons


#
# object Plane.009
#

v -0.03024824149906635 1.25592076778411864 0.15265016257762908
v -0.03024823404848575 1.16184389591217042 0.15265016257762908
v -0.0457896888256073 1.25592076778411864 0.15265016257762908
v -0.04578968230634928 1.16184389591217042 0.15265016257762908
# 4 vertices

vn 0 0 1
vn 0 0 1
vn 0 0 1
vn 0 0 1
# 4 vertex normals

vt 0.38705828785896304 -0.4680215120315552 0
vt 0.38705819845199584 -0.69672560691833496 0
vt 0.35766753554344176 -0.4680215120315552 0
vt 0.35766753554344176 -0.69672560691833496 0
# 4 texture coords

g Plane.009
usemtl TShirt
s 512
f 37/37/37 39/39/39 40/40/40
f 37/37/37 40/40/40 38/38/38
#2 polygons


#
# object Plane.010
#

v -0.0640842099674046 1.30672481469810008 0.16994205117225646
v -0.06408420484513044 1.24630353040993212 0.16994205117225646
v -0.07406577281653881 1.30672481469810008 0.16994205117225646
v -0.07406576862558722 1.24630353040993212 0.16994205117225646
# 4 vertices

vn 0 0 1
vn 0 0 1
vn 0 0 1
vn 0 0 1
# 4 vertex normals

vt 0.56479972600936888 -0.31846141815185548 0
vt 0.56479972600936888 -0.43429160118103024 0
vt 0.54991430044174192 -0.31846141815185548 0
vt 0.54991430044174192 -0.43429160118103024 0
# 4 texture coords

g Plane.010
usemtl TShirt
s 1024
f 41/41/41 43/43/43 44/44/44
f 41/41/41 44/44/44 42/42/42
#2 polygons


#
# object Plane.011
#

v -0.13401137664914132 1.41468990780413152 0.17282977478132434
v -0.13401137664914132 1.39492093026638032 0.17282977478132434
v -0.05550250038504601 1.41468991339206696 0.17282977922334486
v -0.05550250038504601 1.39492093585431576 0.17282977922334486
# 4 vertices

vn -5.657985013840516E-08 0 0.9999999403953552
vn -5.657985013840516E-08 0 0.9999999403953552
vn -5.657985013840516E-08 0 0.9999999403953552
vn -5.657985013840516E-08 0 0.9999999403953552
# 4 vertex normals

vt 0.317020982503891 -0.33734780550003052 0
vt 0.317020982503891 -0.3826653361320496 0
vt 0.45765560865402224 -0.33734780550003052 0
vt 0.45765560865402224 -0.3826653361320496 0
# 4 texture coords

g Plane.011
usemtl TShirt
s 2048
f 45/45/45 46/46/46 48/48/48
f 45/45/45 48/48/48 47/47/47
#2 polygons


#
# object Plane.012
#

v -0.00952006503939628 1.3519878536462784 0.18063941473643476
v -0.06298321858048439 1.35198784060776232 0.18063941473643476
v -0.00952005013823509 1.28965973667800428 0.180639417222336
v -0.0629832036793232 1.28965972363948824 0.180639417222336
# 4 vertices

vn -9.726878285839288E-15 3.988411023669869E-08 1
vn -9.726878285839288E-15 3.988411023669869E-08 1
vn -9.726878285839288E-15 3.988411023669869E-08 1
vn -9.726878285839288E-15 3.988411023669869E-08 1
# 4 vertex normals

vt 0.8259684443473816 -0.20367157459259032 0
vt 0.9194644093513488 -0.20367157459259032 0
vt 0.8259684443473816 -0.06355381011962891 0
vt 0.91946429014205936 -0.06355381011962891 0
# 4 texture coords

g Plane.012
usemtl TShirt
s 4096
f 49/49/49 50/50/50 52/52/52
f 49/49/49 52/52/52 51/51/51
#2 polygons


#
# object Plane.013
#

v -0.0554357769433409 1.23626045882701872 0.13948196172714234
v -0.05543577391654253 1.19980402290821076 0.13948196172714234
v -0.06145836017094553 1.23626045882701872 0.13948196172714234
v -0.06145835760980844 1.19980402290821076 0.13948196172714234
# 4 vertices

vn 0 0 1
vn 0 0 1
vn 0 0 1
vn 0 0 1
# 4 vertex normals

vt 0.4960084557533264 -0.42472106218338016 0
vt 0.4960084855556488 -0.32995742559432984 0
vt 0.5081865191459656 -0.42472106218338016 0
vt 0.5081865191459656 -0.32995742559432984 0
# 4 texture coords

g Plane.013
usemtl TShirt
s 8192
f 53/53/53 55/55/55 56/56/56
f 53/53/53 56/56/56 54/54/54
#2 polygons

